<?xml version="1.0" encoding="UTF-8" standalone="no" ?>
<!DOCTYPE svg PUBLIC "-//W3C//DTD SVG 1.1//EN" "http://www.w3.org/Graphics/SVG/1.1/DTD/svg11.dtd">
<svg xmlns="http://www.w3.org/2000/svg" xmlns:xlink="http://www.w3.org/1999/xlink" version="1.1" width="500" height="500" viewBox="0 0 500 500" xml:space="preserve">
<!-- Created with SVG Stack Editor - https://svgstack.com -->
<defs>
</defs>
<rect x="0" y="0" width="100%" height="100%" fill="transparent"></rect>
<g transform="matrix(2.49 0 0 2.49 250 250)"  >
<g style=""   >
		<g transform="matrix(1 0 0 1 0 0)" id="path_0"  >
<path style="stroke: none; stroke-width: 1; stroke-dasharray: none; stroke-linecap: butt; stroke-dashoffset: 0; stroke-linejoin: miter; stroke-miterlimit: 4; fill: rgb(255,255,255); fill-rule: nonzero; opacity: 1;"  transform=" translate(-100.88, -100.61)" d="M 101.105 200.642 L 100.665 200.642 C 45.6466 200.642 0.884766 155.867 0.884766 100.833 L 0.884766 100.393 C 0.884766 45.3585 45.6466 0.583496 100.665 0.583496 L 101.105 0.583496 C 156.123 0.583496 200.885 45.3585 200.885 100.393 L 200.885 100.833 C 200.885 155.867 156.123 200.642 101.105 200.642 Z M 100.665 7.35528 C 49.3768 7.35528 7.65456 49.0898 7.65456 100.393 L 7.65456 100.833 C 7.65456 152.136 49.3768 193.871 100.665 193.871 L 101.105 193.871 C 152.393 193.871 194.115 152.136 194.115 100.833 L 194.115 100.393 C 194.115 49.0898 152.393 7.35528 101.105 7.35528 L 100.665 7.35528 Z" stroke-linecap="round" />
</g>
		<g transform="matrix(1 0 0 1 0.01 0)" id="path_1"  >
<path style="stroke: none; stroke-width: 1; stroke-dasharray: none; stroke-linecap: butt; stroke-dashoffset: 0; stroke-linejoin: miter; stroke-miterlimit: 4; fill: rgb(255,255,255); fill-rule: nonzero; opacity: 1;"  transform=" translate(-100.9, -100.61)" d="M 160.753 98.1919 C 159.149 90.9122 152.501 86.1922 145.907 87.6481 C 143.66 88.1425 141.723 89.3005 140.194 90.8851 C 131.318 84.4383 119.2 80.179 105.668 79.3731 L 112.146 52.3943 L 131.366 56.9923 C 131.684 62.2472 136.037 66.4119 141.371 66.4119 C 146.706 66.4119 151.404 61.9154 151.404 56.3761 C 151.404 50.8368 146.909 46.3403 141.371 46.3403 C 137.357 46.3403 133.898 48.7037 132.3 52.1167 L 111.449 47.1259 C 109.811 46.7331 108.166 47.7421 107.766 49.3809 L 100.597 79.2376 C 85.5004 79.3189 71.8796 83.6866 62.104 90.6819 C 61.6233 90.235 61.1089 89.822 60.547 89.4563 C 54.8536 85.8199 46.9871 87.9664 42.9793 94.2439 C 38.9716 100.528 40.3324 108.566 46.0257 112.203 C 46.3642 112.419 46.7095 112.609 47.0615 112.785 C 46.8314 114.187 46.7095 115.616 46.7095 117.058 C 46.7095 137.949 71.0199 154.885 101.01 154.885 C 131 154.885 155.311 137.949 155.311 117.058 C 155.311 115.595 155.182 114.153 154.945 112.738 C 159.569 110.049 162.087 104.192 160.767 98.1919 L 160.753 98.1919 Z M 73.1659 108.295 C 73.1659 103.535 77.0247 99.6748 81.7838 99.6748 C 86.543 99.6748 90.4018 103.535 90.4018 108.295 C 90.4018 113.056 86.543 116.916 81.7838 116.916 C 77.0247 116.916 73.1659 113.056 73.1659 108.295 Z M 121.028 135.511 C 118.381 137.915 111.07 143.522 100.367 143.624 C 100.272 143.624 100.171 143.624 100.076 143.624 C 89.2305 143.624 81.8244 137.963 79.1233 135.511 C 78.2567 134.726 78.1958 133.385 78.9811 132.525 C 79.7664 131.658 81.1069 131.597 81.9666 132.383 C 84.3157 134.522 90.808 139.486 100.326 139.398 C 109.581 139.31 115.897 134.468 118.185 132.389 C 119.051 131.604 120.385 131.665 121.171 132.532 C 121.956 133.398 121.895 134.732 121.028 135.518 L 121.028 135.511 Z M 119.986 116.916 C 115.227 116.916 111.368 113.056 111.368 108.295 C 111.368 103.535 115.227 99.6748 119.986 99.6748 C 124.745 99.6748 128.604 103.535 128.604 108.295 C 128.604 113.056 124.745 116.916 119.986 116.916 Z" stroke-linecap="round" />
</g>
</g>
</g>
<g transform="matrix(2.49 0 0 2.49 250 250)"  >
<g style=""   >
		<g transform="matrix(1 0 0 1 0 0)" id="path_0"  >
<path style="stroke: none; stroke-width: 1; stroke-dasharray: none; stroke-linecap: butt; stroke-dashoffset: 0; stroke-linejoin: miter; stroke-miterlimit: 4; fill: rgb(255,255,255); fill-rule: nonzero; opacity: 1;"  transform=" translate(-100.88, -100.61)" d="M 101.105 200.642 L 100.665 200.642 C 45.6466 200.642 0.884766 155.867 0.884766 100.833 L 0.884766 100.393 C 0.884766 45.3585 45.6466 0.583496 100.665 0.583496 L 101.105 0.583496 C 156.123 0.583496 200.885 45.3585 200.885 100.393 L 200.885 100.833 C 200.885 155.867 156.123 200.642 101.105 200.642 Z M 100.665 7.35528 C 49.3768 7.35528 7.65456 49.0898 7.65456 100.393 L 7.65456 100.833 C 7.65456 152.136 49.3768 193.871 100.665 193.871 L 101.105 193.871 C 152.393 193.871 194.115 152.136 194.115 100.833 L 194.115 100.393 C 194.115 49.0898 152.393 7.35528 101.105 7.35528 L 100.665 7.35528 Z" stroke-linecap="round" />
</g>
		<g transform="matrix(1 0 0 1 0.01 0)" id="path_1"  >
<path style="stroke: none; stroke-width: 1; stroke-dasharray: none; stroke-linecap: butt; stroke-dashoffset: 0; stroke-linejoin: miter; stroke-miterlimit: 4; fill: rgb(255,255,255); fill-rule: nonzero; opacity: 1;"  transform=" translate(-100.9, -100.61)" d="M 160.753 98.1919 C 159.149 90.9122 152.501 86.1922 145.907 87.6481 C 143.66 88.1425 141.723 89.3005 140.194 90.8851 C 131.318 84.4383 119.2 80.179 105.668 79.3731 L 112.146 52.3943 L 131.366 56.9923 C 131.684 62.2472 136.037 66.4119 141.371 66.4119 C 146.706 66.4119 151.404 61.9154 151.404 56.3761 C 151.404 50.8368 146.909 46.3403 141.371 46.3403 C 137.357 46.3403 133.898 48.7037 132.3 52.1167 L 111.449 47.1259 C 109.811 46.7331 108.166 47.7421 107.766 49.3809 L 100.597 79.2376 C 85.5004 79.3189 71.8796 83.6866 62.104 90.6819 C 61.6233 90.235 61.1089 89.822 60.547 89.4563 C 54.8536 85.8199 46.9871 87.9664 42.9793 94.2439 C 38.9716 100.528 40.3324 108.566 46.0257 112.203 C 46.3642 112.419 46.7095 112.609 47.0615 112.785 C 46.8314 114.187 46.7095 115.616 46.7095 117.058 C 46.7095 137.949 71.0199 154.885 101.01 154.885 C 131 154.885 155.311 137.949 155.311 117.058 C 155.311 115.595 155.182 114.153 154.945 112.738 C 159.569 110.049 162.087 104.192 160.767 98.1919 L 160.753 98.1919 Z M 73.1659 108.295 C 73.1659 103.535 77.0247 99.6748 81.7838 99.6748 C 86.543 99.6748 90.4018 103.535 90.4018 108.295 C 90.4018 113.056 86.543 116.916 81.7838 116.916 C 77.0247 116.916 73.1659 113.056 73.1659 108.295 Z M 121.028 135.511 C 118.381 137.915 111.07 143.522 100.367 143.624 C 100.272 143.624 100.171 143.624 100.076 143.624 C 89.2305 143.624 81.8244 137.963 79.1233 135.511 C 78.2567 134.726 78.1958 133.385 78.9811 132.525 C 79.7664 131.658 81.1069 131.597 81.9666 132.383 C 84.3157 134.522 90.808 139.486 100.326 139.398 C 109.581 139.31 115.897 134.468 118.185 132.389 C 119.051 131.604 120.385 131.665 121.171 132.532 C 121.956 133.398 121.895 134.732 121.028 135.518 L 121.028 135.511 Z M 119.986 116.916 C 115.227 116.916 111.368 113.056 111.368 108.295 C 111.368 103.535 115.227 99.6748 119.986 99.6748 C 124.745 99.6748 128.604 103.535 128.604 108.295 C 128.604 113.056 124.745 116.916 119.986 116.916 Z" stroke-linecap="round" />
</g>
</g>
</g>
</svg>