<?xml version="1.0" encoding="UTF-8" standalone="no" ?>
<!DOCTYPE svg PUBLIC "-//W3C//DTD SVG 1.1//EN" "http://www.w3.org/Graphics/SVG/1.1/DTD/svg11.dtd">
<svg xmlns="http://www.w3.org/2000/svg" xmlns:xlink="http://www.w3.org/1999/xlink" version="1.1" width="500" height="500" viewBox="0 0 500 500" xml:space="preserve">
<!-- Created with SVG Stack Editor - https://svgstack.com -->
<defs>
</defs>
<rect x="0" y="0" width="100%" height="100%" fill="transparent"></rect>
<g transform="matrix(2.49 0 0 2.49 250 250)"  >
<g style=""   >
		<g transform="matrix(1 0 0 1 0 0)" id="path_0"  >
<path style="stroke: none; stroke-width: 1; stroke-dasharray: none; stroke-linecap: butt; stroke-dashoffset: 0; stroke-linejoin: miter; stroke-miterlimit: 4; fill: rgb(255,255,255); fill-rule: nonzero; opacity: 1;"  transform=" translate(-100.19, -100.09)" d="M 100.188 200.115 C 45.0458 200.115 0.187988 155.244 0.187988 100.086 C 0.187988 44.9274 45.0458 0.0563965 100.188 0.0563965 C 155.33 0.0563965 200.188 44.9274 200.188 100.086 C 200.188 155.244 155.33 200.115 100.188 200.115 Z M 100.188 6.8468 C 48.793 6.8468 6.9764 48.6757 6.9764 100.086 C 6.9764 151.496 48.793 193.325 100.188 193.325 C 151.583 193.325 193.4 151.496 193.4 100.086 C 193.4 48.6757 151.583 6.8468 100.188 6.8468 Z" stroke-linecap="round" />
</g>
		<g transform="matrix(1 0 0 1 0 0)" id="path_1"  >
<path style="stroke: none; stroke-width: 1; stroke-dasharray: none; stroke-linecap: butt; stroke-dashoffset: 0; stroke-linejoin: miter; stroke-miterlimit: 4; fill: rgb(255,255,255); fill-rule: nonzero; opacity: 1;"  transform=" translate(-100.18, -100.08)" d="M 161.019 80.0611 C 160.259 72.7207 158.623 64.6061 152.601 60.3417 C 147.938 57.0348 141.808 56.9126 136.085 56.9194 C 123.988 56.9262 111.885 56.9397 99.7876 56.9465 C 88.1523 56.9601 76.5169 56.9669 64.8816 56.9805 C 60.0211 56.9873 55.2963 56.607 50.782 58.712 C 46.9059 60.5183 43.8714 63.9543 42.0454 67.7773 C 39.5133 73.0942 38.9838 79.1172 38.6783 84.9977 C 38.1149 95.7062 38.176 106.442 38.848 117.144 C 39.3436 124.952 40.5994 133.583 46.6343 138.56 C 51.9836 142.967 59.5323 143.185 66.47 143.191 C 88.4916 143.212 110.52 143.232 132.548 143.246 C 135.372 143.253 138.319 143.198 141.197 142.886 C 146.858 142.275 152.255 140.652 155.894 136.455 C 159.566 132.225 160.51 126.338 161.067 120.763 C 162.424 107.236 162.411 93.5808 161.019 80.0611 Z M 87.0525 119.045 L 87.0525 81.1204 L 119.881 100.079 L 87.0525 119.045 Z" stroke-linecap="round" />
</g>
</g>
</g>
<g transform="matrix(2.49 0 0 2.49 250 250)"  >
<g style=""   >
		<g transform="matrix(1 0 0 1 0 0)" id="path_0"  >
<path style="stroke: none; stroke-width: 1; stroke-dasharray: none; stroke-linecap: butt; stroke-dashoffset: 0; stroke-linejoin: miter; stroke-miterlimit: 4; fill: rgb(255,255,255); fill-rule: nonzero; opacity: 1;"  transform=" translate(-100.19, -100.09)" d="M 100.188 200.115 C 45.0458 200.115 0.187988 155.244 0.187988 100.086 C 0.187988 44.9274 45.0458 0.0563965 100.188 0.0563965 C 155.33 0.0563965 200.188 44.9274 200.188 100.086 C 200.188 155.244 155.33 200.115 100.188 200.115 Z M 100.188 6.8468 C 48.793 6.8468 6.9764 48.6757 6.9764 100.086 C 6.9764 151.496 48.793 193.325 100.188 193.325 C 151.583 193.325 193.4 151.496 193.4 100.086 C 193.4 48.6757 151.583 6.8468 100.188 6.8468 Z" stroke-linecap="round" />
</g>
		<g transform="matrix(1 0 0 1 0 0)" id="path_1"  >
<path style="stroke: none; stroke-width: 1; stroke-dasharray: none; stroke-linecap: butt; stroke-dashoffset: 0; stroke-linejoin: miter; stroke-miterlimit: 4; fill: rgb(255,255,255); fill-rule: nonzero; opacity: 1;"  transform=" translate(-100.18, -100.08)" d="M 161.019 80.0611 C 160.259 72.7207 158.623 64.6061 152.601 60.3417 C 147.938 57.0348 141.808 56.9126 136.085 56.9194 C 123.988 56.9262 111.885 56.9397 99.7876 56.9465 C 88.1523 56.9601 76.5169 56.9669 64.8816 56.9805 C 60.0211 56.9873 55.2963 56.607 50.782 58.712 C 46.9059 60.5183 43.8714 63.9543 42.0454 67.7773 C 39.5133 73.0942 38.9838 79.1172 38.6783 84.9977 C 38.1149 95.7062 38.176 106.442 38.848 117.144 C 39.3436 124.952 40.5994 133.583 46.6343 138.56 C 51.9836 142.967 59.5323 143.185 66.47 143.191 C 88.4916 143.212 110.52 143.232 132.548 143.246 C 135.372 143.253 138.319 143.198 141.197 142.886 C 146.858 142.275 152.255 140.652 155.894 136.455 C 159.566 132.225 160.51 126.338 161.067 120.763 C 162.424 107.236 162.411 93.5808 161.019 80.0611 Z M 87.0525 119.045 L 87.0525 81.1204 L 119.881 100.079 L 87.0525 119.045 Z" stroke-linecap="round" />
</g>
</g>
</g>
</svg>